<svg id="SVGRoot" width="500" height="122.13" version="1.1" viewBox="0 0 500 122.13217" xmlns="http://www.w3.org/2000/svg" xmlns:cc="http://creativecommons.org/ns#" xmlns:dc="http://purl.org/dc/elements/1.1/" xmlns:rdf="http://www.w3.org/1999/02/22-rdf-syntax-ns#"><metadata><rdf:RDF><cc:Work rdf:about=""><dc:format>image/svg+xml</dc:format><dc:type rdf:resource="http://purl.org/dc/dcmitype/StillImage"/><dc:title/></cc:Work></rdf:RDF></metadata><g transform="translate(-139.06 -113.93)" fill="#0077bd" stroke-width="1.7444"><path d="m139.06 143.45h11.216v10.239a33.562 33.562 0 0 1 12.333 -9.0882 41.063 41.063 0 0 1 15.926 -2.948 40.801 40.801 0 0 1 17.653 3.6806 29.462 29.462 0 0 1 12.211 10.571 32.969 32.969 0 0 1 4.4656 11.338 101.02 101.02 0 0 1 1.3606 19.188v47.098h-11.269v-50.447q0-15.961-6.0879-23.165-6.0879-7.2043-19.537-7.2043a28.922 28.922 0 0 0 -13.833 3.2445 23.218 23.218 0 0 0 -9.3847 8.9486 25.921 25.921 0 0 0 -3.0003 8.3904 107.77 107.77 0 0 0 -0.85474 16.415v43.819h-11.199z"/><path d="m307.03 219.28a36.632 36.632 0 0 1 -14.6 12.211 45.354 45.354 0 0 1 -19.868 4.4307 44.115 44.115 0 0 1 -32.969 -13.571 46.086 46.086 0 0 1 -13.187 -33.44 46.139 46.139 0 0 1 13.449 -33.823 45.546 45.546 0 0 1 33.701 -13.589 42.807 42.807 0 0 1 19.066 4.2214 37.888 37.888 0 0 1 14.409 12.211v-14.478h11.304v90.079h-11.304zm0-31.399a35.044 35.044 0 0 0 -10.222 -24.945q-10.222-10.676-23.584-10.676a32.847 32.847 0 0 0 -24.683 10.676 36.911 36.911 0 0 0 -10.205 26.497 34.887 34.887 0 0 0 10.152 25.381 32.969 32.969 0 0 0 24.421 10.362 31.748 31.748 0 0 0 23.95 -10.937 37.173 37.173 0 0 0 10.17 -26.323z"/><path d="m346.63 233.53h-11.548v-119.23h11.548v70.909l32.515-41.76h13.275l-32.69 41.76 39.702 48.319h-14.566l-38.237-46.924z"/><path d="m491.01 192.17h-81.288a34.887 34.887 0 0 0 10.641 23.776 33.44 33.44 0 0 0 23.898 9.0533 32.829 32.829 0 0 0 18.264 -5.2331 34.573 34.573 0 0 0 12.559 -14.653h13.1a51.651 51.651 0 0 1 -17.444 22.938 43.854 43.854 0 0 1 -26.078 8.0067 44.464 44.464 0 0 1 -33.23 -13.955 46.557 46.557 0 0 1 -13.606 -33.649q0-20.531 13.31-33.963 13.31-13.432 34.015-13.432 20.304 0 33.143 13.955t12.804 36.353zm-12.769-10.048q-3.262-15.019-12.036-22.677-8.7742-7.6578-22.834-7.588a31.992 31.992 0 0 0 -22.188 8.1637 35.481 35.481 0 0 0 -11.147 22.101z"/><path d="m578.35 157.7v-43.4h11.618v119.23h-11.618v-13.606a41.865 41.865 0 0 1 -15.071 11.757 44.499 44.499 0 0 1 -19.083 4.2214 43.923 43.923 0 0 1 -32.829 -13.763 46.575 46.575 0 0 1 -13.344 -33.736 46.034 46.034 0 0 1 13.17 -33.352 47.098 47.098 0 0 1 52.331 -9.4196 40.121 40.121 0 0 1 14.827 12.071zm0.31399 31.695a37.103 37.103 0 0 0 -10.187 -26.288 31.817 31.817 0 0 0 -23.95 -10.885 32.934 32.934 0 0 0 -24.421 10.362 34.765 34.765 0 0 0 -10.135 25.328 37.016 37.016 0 0 0 10.205 26.532 32.777 32.777 0 0 0 24.683 10.728q13.344 0 23.584-10.728a35.149 35.149 0 0 0 10.222 -25.049z"/><path d="m631.5 207.76-20.235-6.4542v-3.7678l27.003 9.1231v2.2502l-20.566 6.3495 20.566 6.2448v2.2677l-27.003 9.1056v-3.6632l20.235-6.6112-20.235-6.1925v-2.4596z"/><path d="m608.09 192.03v3.4888h-5.582v-3.4888zm30.178 3.4888h-27.003v-3.4888h27.003z"/><path d="m611.26 186.94v-3.3666h3.0701a9.9953 9.9953 0 0 1 -2.7387 -3.6981 12.507 12.507 0 0 1 -0.87218 -4.797 12.211 12.211 0 0 1 1.099 -5.2331 8.7219 8.7219 0 0 1 3.1748 -3.6632 9.9255 9.9255 0 0 1 3.4888 -1.3432 29.654 29.654 0 0 1 5.7564 -0.40121h14.112v3.4888h-15.124a10.745 10.745 0 0 0 -6.9775 1.7444 7.2566 7.2566 0 0 0 -2.163 5.8611 8.8265 8.8265 0 0 0 0.94196 4.1516 6.9775 6.9775 0 0 0 2.7212 2.8084 7.9369 7.9369 0 0 0 2.5119 0.88963 31.172 31.172 0 0 0 4.9191 0.26165h13.135v3.3666z"/><path d="m625.86 132.86v24.421a10.466 10.466 0 0 0 7.1345 -3.1922 10.03 10.03 0 0 0 2.7212 -7.1694 9.8906 9.8906 0 0 0 -1.5699 -5.4773 10.553 10.553 0 0 0 -4.3958 -3.7678v-3.9597a15.542 15.542 0 0 1 6.8903 5.2331 13.955 13.955 0 0 1 -1.7444 17.793 14.757 14.757 0 0 1 -20.287 0 13.781 13.781 0 0 1 -4.0295 -10.205 12.839 12.839 0 0 1 4.2039 -9.9429 15.473 15.473 0 0 1 10.902 -3.8376zm-3.0178 3.9074a12.054 12.054 0 0 0 -6.7856 3.4888 10.135 10.135 0 0 0 -2.2677 6.8554 9.5592 9.5592 0 0 0 2.4421 6.6635 10.728 10.728 0 0 0 6.6112 3.3492z"/><path d="m629.77 131.1v-3.4887h0.10466a6.1402 6.1402 0 0 0 4.1865 -1.4478 4.6226 4.6226 0 0 0 1.6572 -3.5934 4.7098 4.7098 0 0 0 -1.2734 -3.3841 4.2214 4.2214 0 0 0 -3.2271 -1.3432 4.4133 4.4133 0 0 0 -3.105 1.0641 9.8034 9.8034 0 0 0 -2.2154 3.8551 13.955 13.955 0 0 1 -3.2794 5.8785 6.7333 6.7333 0 0 1 -4.4656 1.378 7.1519 7.1519 0 0 1 -5.3727 -2.3026 7.6927 7.6927 0 0 1 -2.2154 -5.5646 7.6055 7.6055 0 0 1 1.9712 -5.4948 7.6752 7.6752 0 0 1 5.4773 -2.1805v3.6283a4.4133 4.4133 0 0 0 -2.9829 1.2211 4.1516 4.1516 0 0 0 -1.0466 2.9829 3.8376 3.8376 0 0 0 1.1338 2.8259 3.9074 3.9074 0 0 0 2.8433 1.1338 3.9946 3.9946 0 0 0 2.0235 -0.47098 4.1167 4.1167 0 0 0 1.4827 -1.5525 11.862 11.862 0 0 0 1.1862 -2.8608c0.38376-1.256 0.64541-2.0932 0.83729-2.5119a7.3264 7.3264 0 0 1 7.431 -4.9191 7.5706 7.5706 0 0 1 5.7739 2.4421 8.5649 8.5649 0 0 1 2.3549 6.1576 7.9195 7.9195 0 0 1 -2.4945 6.1227 9.9604 9.9604 0 0 1 -6.7856 2.4247z"/></g></svg>